<?xml version="1.0" encoding="UTF-8"?>
<svg width="59px" height="61px" viewBox="0 0 59 61" version="1.1" xmlns="http://www.w3.org/2000/svg" xmlns:xlink="http://www.w3.org/1999/xlink">
    <title>Group 5</title>
    <g id="New-App" stroke="none" stroke-width="1" fill="none" fill-rule="evenodd">
        <g id="Group-5" transform="translate(0.000000, 0.009410)" fill-rule="nonzero">
            <path d="M11.102538,18.4620025 L28.8665988,18.4620025 C34.9983612,18.4620025 39.9691368,23.5121318 39.9691368,29.7417821 L39.9691368,48.9174075 C39.9691368,55.1470578 34.9983612,60.1971871 28.8665988,60.1971871 L3.3307614,60.1971871 C1.49123267,60.1971871 0,58.6821483 0,56.8132532 L0,29.7417821 C0,23.5121318 4.97077557,18.4620025 11.102538,18.4620025 Z" id="Rectangle-Copy-5" fill="#030D4E"></path>
            <g id="Group-9-Copy" transform="translate(35.242767, 23.430130) scale(-1, 1) rotate(-135.000000) translate(-35.242767, -23.430130) translate(21.987070, 3.550620)">
                <path d="M25.919207,21.3308093 L8.3756376,39.1571298 C7.58586241,39.9596297 6.30545017,39.9596297 5.51556011,39.1572465 L0.59230267,34.1552771 C-0.197357635,33.3530106 -0.197472511,32.0521578 0.592187793,31.2498913 L11.7825185,19.8779997 L3.84203264,11.8107515 L0.592417546,8.50925928 C-0.197357635,7.70687608 -0.197357635,6.40602326 0.592417546,5.60364005 L5.51567499,0.601787403 C6.30545017,-0.200595801 7.58586241,-0.200595801 8.3756376,0.601787403 L19.4084728,11.8107515 L25.9190921,18.4253068 C26.7087525,19.2275733 26.7088674,20.5284262 25.919207,21.3308093 Z" id="Path" fill="#02DB81"></path>
                <path d="M18.7775688,11.1760781 L10.9943488,19.08355 L8.01939495,16.0611038 L3.05707953,11.0131506 L0.592532423,8.50925928 C-0.197242758,7.70687608 -0.197242758,6.40602326 0.592532423,5.60364005 L5.51544524,0.602137534 C6.30533529,-0.20036238 7.58609216,-0.20024567 8.37575247,0.602487665 L15.802615,8.1535152 L18.7775688,11.1760781 Z" id="Path" fill="#2CB77C"></path>
                <polygon id="Path" fill="#04AA83" points="19.5626369 11.973679 11.7794168 19.8811509 9.89199772 17.9604498 17.6751029 10.0529779"></polygon>
            </g>
            <g id="rupee-indian-copy-2" transform="translate(13.323046, 30.869760)" fill="#FFFFFF">
                <path d="M13.1893407,4.80828065 C13.1004293,4.71784426 12.9866268,4.67270526 12.8482971,4.67270526 L10.3113858,4.67270526 C10.1431244,3.83892714 9.82660809,3.11517204 9.36178482,2.50223187 L12.8184694,2.50223187 C12.9571629,2.50223187 13.0706536,2.45704007 13.1598768,2.36681485 C13.2484244,2.27643127 13.2929061,2.16075927 13.2929061,2.02011563 L13.2929061,0.48232742 C13.2929061,0.341578196 13.2484764,0.226117375 13.1598768,0.13562819 C13.0705497,0.045350181 12.957059,0 12.8183655,0 L0.474696538,0 C0.336158939,0 0.222512379,0.045350181 0.13344507,0.135575396 C0.0446375837,0.226064581 0,0.341525403 0,0.482274625 L0,2.48697436 C0,2.61758711 0.0469759902,2.7306194 0.140927971,2.82607123 C0.234879951,2.92152307 0.346136141,2.96924899 0.474696538,2.96924899 L2.62597864,2.96924899 C4.71282465,2.96924899 6.03823351,3.53683897 6.60194539,4.67244129 L0.474696538,4.67244129 C0.336158939,4.67244129 0.222356485,4.71758029 0.13344507,4.80801668 C0.0446375837,4.89855866 0,5.01396669 0,5.15471592 L0,6.69229294 C0,6.83293658 0.0444297253,6.94855578 0.13344507,7.03878099 C0.222512379,7.12932297 0.336366798,7.1743564 0.474696538,7.1743564 L6.80995965,7.1743564 C6.59233195,7.99857877 6.08536539,8.62651248 5.28906,9.05863266 C4.49270264,9.49080563 3.44203058,9.70689212 2.13636827,9.70689212 L0.474696538,9.70689212 C0.346136141,9.70689212 0.234879951,9.75467083 0.140927971,9.85006987 C0.0469240257,9.9455745 0,10.0586596 0,10.1891667 L0,12.1036412 C0,12.2344652 0.0444297253,12.3449634 0.13344507,12.4352941 C2.03238712,14.4851856 4.49530087,17.3538618 7.52187454,21.0420616 C7.61099383,21.1627491 7.73456562,21.2229344 7.89284976,21.2229344 L10.7858225,21.2229344 C10.9937328,21.2229344 11.137259,21.132762 11.2161413,20.9515196 C11.3150299,20.7706469 11.2956471,20.5998049 11.1567457,20.438994 C8.26896947,16.8414417 5.99884434,14.1484118 4.34704589,12.3597985 C6.02851613,12.158864 7.39347004,11.6060563 8.4419596,10.7018508 C9.49029325,9.79753967 10.1281586,8.62160263 10.3558155,7.17462037 L12.8482971,7.17462037 C12.9866268,7.17462037 13.1004812,7.12953415 13.1893407,7.03904497 C13.27846,6.94881975 13.3230456,6.83320055 13.3230456,6.69255691 L13.3230456,5.15513826 C13.3230456,5.01423066 13.27846,4.89876984 13.1893407,4.80828065 Z" id="Path"></path>
            </g>
        </g>
    </g>
</svg>