<?xml version="1.0" encoding="UTF-8"?>
<svg width="191px" height="61.9550454px" viewBox="0 0 191 61.9550454" version="1.1" xmlns="http://www.w3.org/2000/svg" xmlns:xlink="http://www.w3.org/1999/xlink">
    <title>Unipe Logo</title>
    <g id="Archive" stroke="none" stroke-width="1" fill="none" fill-rule="evenodd">
        <g id="Fly_B-Copy" transform="translate(-209, -771.045)" fill-rule="nonzero">
            <g id="Unipe-Logo" transform="translate(209, 771.045)">
                <g id="Group-2">
                    <path d="M10.578144,17.6974987 L27.5031744,17.6974987 C33.3453221,17.6974987 38.0813185,22.5688277 38.0813185,28.5779167 L38.0813185,47.0746274 C38.0813185,53.0837163 33.3453221,57.9550454 27.5031744,57.9550454 L3.1734432,57.9550454 C1.42079892,57.9550454 0,56.4936466 0,54.69092 L0,28.5779167 C0,22.5688277 4.73599639,17.6974987 10.578144,17.6974987 Z" id="Rectangle-Copy-5" fill="#FFFFFF"></path>
                    <g id="Group-9-Copy" transform="translate(33.5782, 22.4897) scale(-1, 1) rotate(-135) translate(-33.5782, -22.4897)translate(20.9486, 3.3141)">
                        <path d="M24.6949936,20.5755902 L7.98004031,37.7707681 C7.22756771,38.5448555 6.00763177,38.5448555 5.25504972,37.7708807 L0.564327089,32.9460065 C-0.188036059,32.1721444 -0.188145509,30.9173483 0.564217638,30.1434862 L11.2260077,19.1742173 L3.66056613,11.3925908 L0.564436539,8.20798821 C-0.188036059,7.43401345 -0.188036059,6.17921744 0.564436539,5.40524268 L5.25515918,0.580481067 C6.00763177,-0.193493689 7.22756771,-0.193493689 7.98004031,0.580481067 L18.4917737,11.3925908 L24.6948841,17.7729572 C25.4472473,18.5468194 25.4473568,19.8016154 24.6949936,20.5755902 Z" id="Path" fill="#02DB81"></path>
                        <path d="M17.8906686,10.7803881 L10.4750648,18.4078952 L7.64062368,15.492459 L2.91268785,10.623229 L0.56454599,8.20798821 C-0.187926608,7.43401345 -0.187926608,6.17921744 0.56454599,5.40524268 L5.25494027,0.580818801 C6.00752232,-0.193268533 7.22778661,-0.193155954 7.98014976,0.581156536 L15.0562275,7.86483927 L17.8906686,10.7803881 Z" id="Path" fill="#2CB77C"></path>
                        <polygon id="Path" fill="#04AA83" points="18.6386563 11.5497498 11.2230525 19.177257 9.42477986 17.3245585 16.8402742 9.6970513"></polygon>
                    </g>
                    <g id="rupee-indian-copy-2" transform="translate(12.6938, 29.666)" fill="#12151F">
                        <path d="M12.5663831,4.63804305 C12.4816711,4.55080857 12.3732437,4.50726772 12.2414476,4.50726772 L9.8243594,4.50726772 C9.66404536,3.70300959 9.36247871,3.0048791 8.91960992,2.41364013 L12.2130288,2.41364013 C12.3451715,2.41364013 12.4533018,2.37004835 12.5383108,2.28301756 C12.6226762,2.19583402 12.6650569,2.0842574 12.6650569,1.94859326 L12.6650569,0.465250575 C12.6650569,0.32948459 12.6227257,0.218111669 12.5383108,0.130826262 C12.4532028,0.0437445538 12.3450724,0 12.2129297,0 L0.452275718,0 C0.320281514,0 0.212002696,0.0437445538 0.127142206,0.130775337 C0.0425292657,0.218060745 0,0.329433666 0,0.465199649 L0,2.39892282 C0,2.5249112 0.0447572249,2.63394158 0.134271675,2.72601393 C0.223786125,2.81808629 0.329787473,2.86412247 0.452275718,2.86412247 L2.50194867,2.86412247 C4.49022898,2.86412247 5.75303626,3.41161688 6.29012296,4.50701309 L0.452275718,4.50701309 C0.320281514,4.50701309 0.211854165,4.55055395 0.127142206,4.63778843 C0.0425292657,4.72512476 0,4.83644676 0,4.97221274 L0,6.45535172 C0,6.59101586 0.0423312249,6.70254156 0.127142206,6.78957233 C0.212002696,6.87690866 0.320479554,6.92034768 0.452275718,6.92034768 L6.48831231,6.92034768 C6.28096357,7.71538839 5.79794201,8.32109004 5.03924764,8.73791097 C4.28050375,9.15478282 3.27945693,9.36321875 2.03546353,9.36321875 L0.452275718,9.36321875 C0.329787473,9.36321875 0.223786125,9.40930585 0.134271675,9.50132728 C0.0447077148,9.59345056 0,9.70253185 0,9.82841839 L0,11.6751107 C0,11.8013029 0.0423312249,11.9078889 0.127142206,11.9950215 C1.93639361,13.9723364 4.28297926,16.7394468 7.16660211,20.2970656 C7.25151212,20.4134801 7.36924738,20.4715345 7.52005546,20.4715345 L10.2763876,20.4715345 C10.4744779,20.4715345 10.611225,20.3845547 10.6863816,20.2097292 C10.7805995,20.0352603 10.7621322,19.870467 10.6297914,19.7153496 C7.87841033,16.245169 5.71550752,13.647486 4.14172665,11.9221987 C5.74377785,11.7283783 7.04426239,11.1951428 8.04322979,10.3229508 C9.04204866,9.45065692 9.64978642,8.31635403 9.86669063,6.9206023 L12.2414476,6.9206023 C12.3732437,6.9206023 12.4817206,6.87711237 12.5663831,6.78982697 C12.6512931,6.70279618 12.6937728,6.59127048 12.6937728,6.45560634 L12.6937728,4.97262014 C12.6937728,4.83670138 12.6512931,4.72532846 12.5663831,4.63804305 Z" id="Path"></path>
                    </g>
                </g>
                <g id="unipe" transform="translate(52, 10.955)">
                    <path d="M9.66956522,41.2387096 C13.4604743,41.2387096 15.8778656,39.3741935 17.4162055,36.6322581 L17.6359683,39.648387 C17.690909,40.3612903 18.0205533,40.5806451 18.5150197,40.5806451 L25.7122529,40.5806451 C26.2067193,40.5806451 26.646245,40.1967741 26.646245,39.7032257 L26.646245,14.5870968 C26.646245,14.0935484 26.2067193,13.7096774 25.7122529,13.7096774 L18.2952569,13.7096774 C17.8007905,13.7096774 17.4162055,14.0935484 17.4162055,14.5870968 L17.4162055,27.8032258 C17.4162055,31.1483871 15.8778656,32.7935483 13.2956522,32.7935483 C10.6035573,32.7935483 9.23003953,31.1483871 9.23003953,27.8032258 L9.23003953,14.5870968 C9.23003953,14.0935484 8.84545454,13.7096774 8.35098814,13.7096774 L0.879051383,13.7096774 C0.38458498,13.7096774 0,14.0935484 0,14.5870968 L0,30.1064516 C0,37.0709678 4.12055336,41.2387096 9.66956522,41.2387096 Z" id="Path" fill="#FFFFFF"></path>
                    <path d="M33.1841897,40.5806451 L40.6561265,40.5806451 C41.1505929,40.5806451 41.5351779,40.1967741 41.5351779,39.7032257 L41.5351779,26.4870967 C41.5351779,23.1419355 43.0185771,21.4967742 45.6557312,21.4967742 C48.3478261,21.4967742 49.7213439,23.1419355 49.7213439,26.4870967 L49.7213439,39.7032257 C49.7213439,40.1967741 50.1059289,40.5806451 50.6003953,40.5806451 L58.0173913,40.5806451 C58.5118578,40.5806451 58.9513835,40.1967741 58.9513835,39.7032257 L58.9513835,24.183871 C58.9513835,17.2193549 54.7758893,13.0516129 49.2268775,13.0516129 C45.4359683,13.0516129 43.0735178,14.916129 41.5351779,17.6580645 L41.2604743,14.6419355 C41.2604743,13.9290322 40.8758893,13.7096774 40.4363636,13.7096774 L33.1841897,13.7096774 C32.6897233,13.7096774 32.3051383,14.0935484 32.3051383,14.5870968 L32.3051383,39.7032257 C32.3051383,40.1967741 32.6897233,40.5806451 33.1841897,40.5806451 Z" id="Path" fill="#FFFFFF"></path>
                    <path d="M69.3351779,9.92580645 C72.1920949,9.92580645 74.3347826,7.73225806 74.3347826,4.93548387 C74.3347826,2.19354839 72.1920949,0 69.3351779,0 C66.4233201,0 64.3355731,2.19354839 64.3355731,4.93548387 C64.3355731,7.73225806 66.4233201,9.92580645 69.3351779,9.92580645 Z M64.6652174,39.7032257 C64.6652174,40.1967741 65.0498024,40.5806451 65.5442688,40.5806451 L73.1260869,40.5806451 C73.6205533,40.5806451 74.0051383,40.1967741 74.0051383,39.7032257 L74.0051383,14.5870968 C74.0051383,14.0935484 73.6205533,13.7096774 73.1260869,13.7096774 L65.5442688,13.7096774 C65.0498024,13.7096774 64.6652174,14.0935484 64.6652174,14.5870968 L64.6652174,39.7032257 Z" id="Shape" fill="#FFFFFF"></path>
                    <path d="M80.6529644,51 L88.1798419,51 C88.6743083,51 89.0588933,50.616129 89.0588933,50.1225806 L89.0588933,38.2225806 C90.8719368,40.1419354 93.2893281,41.2387096 96.53083,41.2387096 C103.947826,41.2387096 109.057312,35.0967742 109.057312,27.1451613 C109.057312,19.2483871 103.947826,13.0516129 96.53083,13.0516129 C92.739921,13.0516129 90.1577075,14.4225806 88.4545454,16.7806452 L88.344664,14.5870968 C88.344664,14.0935484 87.960079,13.7096774 87.4656126,13.7096774 L80.6529644,13.7096774 C80.158498,13.7096774 79.7739131,14.0935484 79.7739131,14.5870968 L79.7739131,50.1225806 C79.7739131,50.616129 80.158498,51 80.6529644,51 Z M88.9490118,27.0903226 C88.9490118,23.6354839 91.201581,21.3870968 94.443083,21.3870968 C97.6296443,21.3870968 100.047036,23.6903226 100.047036,27.1451613 C100.047036,30.6548387 97.6296443,32.9032258 94.443083,32.9032258 C91.201581,32.9032258 88.9490118,30.6 88.9490118,27.0903226 Z" id="Shape" fill="#2CB77C"></path>
                    <path d="M126.967985,41.2387096 C130.813835,41.2387096 134.275099,40.1967741 136.527668,37.8935484 C137.077075,37.4 137.022135,36.9612903 136.802372,36.6322581 L134.275099,33.1225806 C134.000396,32.6838709 133.725692,32.5741935 133.286165,32.7935483 C131.033597,34 129.275494,34.0548387 127.737154,34.0548387 C124.385771,34.0548387 122.023321,33.1225806 121.034387,30.6548387 L135.593676,30.6548387 C138.285771,30.6548387 139,28.8451613 139,25.9387096 C139,19.0290322 134.220158,13.0516129 125.979051,13.0516129 C117.573122,13.0516129 112.024111,19.1387096 112.024111,27.0354838 C112.024111,35.316129 118.122529,41.2387096 126.967985,41.2387096 Z M120.869565,24.348387 C121.583794,21.6064516 123.671542,20.5645161 126.033992,20.5645161 C128.286561,20.5645161 130.264427,21.4967742 130.813835,24.348387 L120.869565,24.348387 Z" id="Shape" fill="#2CB77C"></path>
                </g>
            </g>
        </g>
    </g>
</svg>